<?xml version="1.0" encoding="UTF-8"?>
<svg id="Capa_1" data-name="Capa 1" xmlns="http://www.w3.org/2000/svg" viewBox="0 0 792 612">
  <defs>
    <style>
      .cls-1 {
        fill: #c51818;
      }
    </style>
  </defs>
  <path class="cls-1" d="M479.49,440.94c-27.66,0-55.31-.05-82.97.07-2.76.01-3.46-.72-3.33-3.39.23-4.54.22-9.12,0-13.66-.13-2.53.7-3.03,3.08-3.02,28.2.08,56.4.05,84.6.05,26.57,0,53.14-.03,79.72.06,2.56,0,3.45-.46,3.47-3.27.07-7.49-.05-14.96-.34-22.44-.1-2.61-.82-3.58-3.77-3.58-54.23.11-108.46.06-162.69.16-3.17,0-4.13-.58-4.09-3.99.2-18.87.15-37.74.04-56.61-.01-2.38.53-3,2.96-3.14,17.05-.94,33.52-4.08,48.27-13.39,2.85-1.8,5.42-3.95,7.85-6.27,1.12-1.07,1.43-1.85-.39-2.44-.92-.3-1.84-.68-2.67-1.19-4.17-2.56-7.48-3.1-11.89.81-6.02,5.33-14.22,6.63-22.04,7.91-19.56,3.2-39.11,3.04-58.49-1.19-7.26-1.58-14.6-3.49-19.7-9.71-.76-.93-1.77-.44-2.68-.01-2.36,1.08-4.7,2.22-7.11,3.16-1.86.72-1.71,1.34-.4,2.6,7.43,7.19,16.45,11.5,26.13,14.59,9.76,3.11,19.81,4.63,30.01,5.13,2.1.1,2.67.62,2.66,2.74-.09,19.09-.12,38.18.02,57.26.02,2.95-.72,3.72-3.69,3.72-54.23-.09-108.46-.05-162.69-.13-2.77,0-3.92.56-4.06,3.55-.38,7.91-.51,15.82-.37,23.74.03,1.68.71,2.03,2.12,1.93.75-.06,1.52,0,2.28,0,54.45,0,108.89.01,163.34-.07,2.43,0,3.18.53,3.06,3.02-.22,4.54-.23,9.12,0,13.66.14,2.67-.58,3.42-3.32,3.4-24.62-.11-49.24-.07-73.86-.07-30.69,0-61.39-.04-92.08.07-2.68,0-3.36-.74-3.55-3.33-1.3-17.66-1.72-35.25.6-52.9,3.63-27.67,18.92-45.65,44.51-55.75,16.51-6.52,33.45-11.84,49.98-18.29,8.67-3.39,17.22-7.03,25.65-10.96,1.59-.74,2.27-1.5,2.25-3.3-.09-9.11-.06-18.22-.02-27.33,0-1.25-.4-2.32-.86-3.42-2.74-6.51-4.83-13.24-5.92-20.2-.47-3-1.62-4.28-4.55-5.1-14.15-3.93-27.67-9.39-39.5-18.34-10.99-8.32-18.95-18.62-20.89-32.77-.84-6.12-.8-6.5,4.54-9.46,10.94-6.06,22.91-9.05,35.02-11.51,19.27-3.91,38.78-5.74,58.4-6.68,22.77-1.09,45.53-.91,68.26.82,21.95,1.67,43.76,4.32,64.87,11,6.2,1.96,12.17,4.48,17.72,7.96,1.68,1.06,2.24,2.25,2.14,4.22-.77,14.69-8.04,25.8-19.11,34.75-12.25,9.92-26.52,15.84-41.54,19.97-3.6.99-5.42,2.4-5.82,6.24-.48,4.51-1.67,8.98-3.42,13.16-1.82,4.33-2.27,8.7-2.18,13.3.15,7.81.11,15.62,0,23.42-.03,1.74.39,2.46,2.05,3.26,22.79,10.92,46.89,18.45,70.47,27.31,10.67,4.01,21,8.75,29.78,16.27,10.98,9.4,16.48,21.78,19.18,35.62,3.62,18.49,3,37.12,1.62,55.75-.46,6.27-.62,6.25-6.9,6.25-26.57,0-53.14,0-79.72,0ZM320.87,203.04c-.31-.01-.63-.03-.94-.04-3.31,7.6-3.88,15.24.11,22.9,1.07,2.06,2.62,4.23,4.72,4.73,5.45,1.28,6.42,5.05,6.46,9.69,0,.64.19,1.28.29,1.92,2.64,15.51,7.77,30,18.34,41.96,13.8,15.6,30.91,22.46,51.57,17.29,15.84-3.96,26.76-14.57,34.65-28.46,6.62-11.67,9.83-24.42,11.3-37.67.12-1.06-.39-2.47,1.46-2.74,8.46-1.26,11.56-7.25,12.57-14.77.87-6.46-.58-12.47-4.64-18.68-.4,6.11.01,11.37-1.1,16.51-1.69-7.97-3.19-15.92-4.63-23.89-.31-1.72-.79-2.62-2.94-2.8-39.52-3.2-79.02-2.96-118.53.16-1.79.14-2.7.63-2.96,2.52-.4,2.89-1.07,5.74-1.64,8.61-1.1,5.49-2.22,10.98-3.33,16.47-.26-.03-.51-.06-.77-.08v-13.62ZM338.75,274.76c0,5.92,0,11.83,0,17.75,0,9.42.97,10.86,9.73,14.32,1.3.51,2.63.99,3.98,1.36,21.07,5.72,42.35,5.8,63.73,2.23,6.31-1.05,12.43-2.79,18.06-5.99,3.99-2.27,6.32-5.29,5.95-10.21-.31-4.09-.06-8.23-.06-12.35,0-2.92,0-5.85,0-9.65-23.32,43.84-75.93,45.55-101.4,2.54Z"/>
  <path class="cls-1" d="M391.03,106.36c16.44.07,30.15,1.1,43.83,2.67,1.39.16,2.45.77,3.51,1.5,18.37,12.6,30.07,29.83,35.83,51.27.78,2.89-.57,2.61-2.4,2.28-26.84-4.97-53.97-6.62-81.2-6.62-28.09,0-56.09,1.51-83.77,6.79-3.65.7-4.25,0-3.28-3.51,5.6-20.23,16.7-36.66,33.76-49,2.23-1.62,4.51-2.58,7.36-2.89,16.29-1.77,32.61-2.7,46.34-2.49ZM388.59,110.96c-4.22,0-8.44.09-12.66-.04-1.93-.06-2.65.39-2.6,2.48.14,6.27,0,12.55.09,18.83.05,3.46.44,6.92,1.9,10.13,3.38,7.46,13.34,13.39,22.51,5.74,3.81-3.17,5.72-7.39,5.9-12.18.3-7.67.15-15.36.28-23.04.03-1.62-.63-1.98-2.11-1.95-4.43.08-8.87.03-13.31.04Z"/>
  <path class="cls-1" d="M435.97,106.31c-31.47-3.93-62.99-3.79-94.97.12,6.24-11.72,14.4-20.9,26.09-26.66,3.99-1.97,8.2-3.39,12.53-4.32,1.8-.39,2.7-.82,3.08-2.86.62-3.33,3.43-5.27,6.53-5.17,3.19.1,5.62,2.06,6.24,5.51.31,1.71,1.06,2.23,2.61,2.58,16.92,3.8,28.89,14.06,37.32,28.86.3.54.87,1.01.57,1.94Z"/>
  <path class="cls-1" d="M389.02,114.18c3.25,0,6.51.07,9.75-.02,1.46-.04,2.15.26,2.09,1.92-.22,6.6.32,13.23-.36,19.82-.38,3.64-1.56,6.97-4.41,9.48-7.89,6.91-17.06.92-18.68-6.83-1.59-7.61-.55-15.34-.81-23.02-.05-1.51,1.01-1.36,2.01-1.36,3.47.01,6.94,0,10.41.01Z"/>
</svg>