<?xml version="1.0" encoding="UTF-8"?>
<svg id="Capa_1" data-name="Capa 1" xmlns="http://www.w3.org/2000/svg" viewBox="0 0 792 612">
  <defs>
    <style>
      .cls-1 {
        fill: #060606;
      }

      .cls-2 {
        fill: #030404;
      }
    </style>
  </defs>
  <path class="cls-2" d="M609.29,235.11c-1.3,121.92-99.22,217.28-221.45,215.69-116.93-1.52-212.84-100.27-211.66-217.91,1.2-119.95,99.44-216.57,218.76-214.86,119.51,1.72,214,97.76,214.35,217.09ZM279.96,346.93c19.24-5.21,37.24-9.99,55.16-15.03,3.71-1.05,6.82-.97,10.36.72,22.34,10.67,45.68,13.6,70.07,8.91,59.47-11.44,99.46-69.71,88.13-128.62-11.69-60.74-70.11-100.79-130.11-89.2-70.07,13.53-109.66,84.9-82.62,150.86,4.67,11.4,5,20.68,1.14,31.66-4.57,13-7.93,26.43-12.12,40.7Z"/>
  <path class="cls-1" d="M308.42,319.1c3.08-10.6,5.69-20.12,8.67-29.52.89-2.82.71-4.88-.86-7.41-23.99-38.67-17.76-86.58,15.04-116.66,33.12-30.37,83.11-32.49,119.21-5.06,28.44,21.61,41.84,59.92,32.98,94.25-9.35,36.2-39.15,63.25-75.28,68.49-21.7,3.15-42.08-.5-61.02-11.56-2.73-1.59-5.14-1.7-8.05-.87-9.84,2.79-19.73,5.39-30.68,8.35ZM423.09,285.42c1.8-.09,3.52-.1,5.22-.28,12.57-1.36,20.82-9.3,21.55-20.47.22-3.4-.53-5.63-4.03-7.14-6.1-2.64-12.1-5.6-17.84-8.95-4.42-2.57-7.22-1.84-9.82,2.42-1.67,2.74-4.12,4.99-5.98,7.64-1.98,2.83-4.18,3.38-7.33,1.92-12.78-5.93-24.21-13.59-32.93-24.87-7.83-10.13-7.98-10.25.21-19.91,2.88-3.4,3.39-6.31,1.45-10.27-3.02-6.14-5.62-12.48-8.39-18.74-.69-1.57-1.23-3.39-3.23-3.64-5.51-.68-10.85-1.2-15.43,3.36-8.27,8.23-11.07,21.57-5.91,33.9,9.4,22.48,24.81,39.9,45.74,52.37,11.37,6.77,23.22,12.28,36.73,12.67Z"/>
</svg>